<svg width="32" height="32" viewBox="0 0 32 32" fill="none" xmlns="http://www.w3.org/2000/svg">
  <rect width="32" height="32" rx="6" fill="#1e40af"/>
  <!-- Algorithm flowchart representation -->
  <rect x="6" y="6" width="8" height="6" rx="1" fill="white"/>
  <rect x="18" y="6" width="8" height="6" rx="1" fill="white"/>
  <rect x="12" y="14" width="8" height="6" rx="1" fill="white"/>
  <rect x="6" y="22" width="8" height="4" rx="1" fill="white"/>
  <rect x="18" y="22" width="8" height="4" rx="1" fill="white"/>

  <!-- Connection arrows -->
  <path d="M10 12L10 14M16 12L16 14" stroke="white" stroke-width="1"/>
  <path d="M16 20L16 22M22 20L22 22" stroke="white" stroke-width="1"/>
  <path d="M8 26L8 28M24 26L24 28" stroke="white" stroke-width="1"/>

  <!-- Arrow heads -->
  <polygon points="9,14 11,14 10,16" fill="white"/>
  <polygon points="15,22 17,22 16,24" fill="white"/>
  <polygon points="7,28 9,28 8,30" fill="white"/>
  <polygon points="23,28 25,28 24,30" fill="white"/>
</svg>
  <defs>
    <clipPath id="clip0_7960_43945">
      <rect width="180" height="180" fill="white" />
    </clipPath>
  </defs>
</svg>